<svg width="255" height="52" viewBox="0 0 255 52" fill="none" xmlns="http://www.w3.org/2000/svg">
<path d="M96.3265 25.2665C96.3265 11.3134 85.2026 0 71.4818 0C57.76 0 46.6371 11.3134 46.6371 25.2665C46.6371 29.0995 47.5398 32.6949 49.0427 35.9504C55.6713 34.6506 60.8999 31.1063 63.6153 28.9165C64.4697 28.2269 65.7122 28.3727 66.3899 29.2416C67.0676 30.1106 66.9246 31.3741 66.0692 32.0636C63.2272 34.3563 57.8748 37.9535 51.0376 39.5885C55.5201 46.1907 62.995 50.5321 71.4818 50.5321C85.2026 50.5321 96.3265 39.2205 96.3265 25.2665ZM61.5403 16.3789C61.5403 18.1715 60.112 19.6244 58.3494 19.6244C56.5877 19.6244 55.1585 18.1715 55.1585 16.3789C55.1585 14.5871 56.5877 13.1351 58.3494 13.1351C60.112 13.1351 61.5403 14.5871 61.5403 16.3789ZM26.8624 33.2159C30.7209 35.3565 35.7855 36.4295 41.6098 36.4806C42.2611 34.3992 42.7084 32.2257 42.7084 29.9257C42.7084 17.9319 33.1476 8.20901 21.3533 8.20901C9.55987 8.20901 0 17.9319 0 29.9257C0 41.9186 9.55987 51.6415 21.3533 51.6415C29.3491 51.6415 36.2346 47.1198 39.8946 40.5049C34.0904 40.2735 29.0822 39.0229 24.9714 36.742C24.014 36.2109 23.6615 34.9912 24.1834 34.0166C24.7063 33.0437 25.905 32.6857 26.8624 33.2159ZM26.6374 21.3824C26.6374 19.5907 28.0657 18.1378 29.8283 18.1378C31.5908 18.1378 33.0182 19.5907 33.0182 21.3824C33.0182 23.1742 31.5908 24.627 29.8283 24.627C28.0657 24.627 26.6374 23.1742 26.6374 21.3824Z" fill="#F58025"/>
<path d="M110.527 36.9861H113.15V17.2214H110.527V36.9861ZM116.509 36.9861H119.132V23.9479H116.509V36.9861ZM117.822 17.8437C116.975 17.8437 116.306 18.555 116.306 19.3861C116.306 20.2144 117.006 20.9257 117.793 20.9257C118.638 20.9257 119.338 20.245 119.338 19.3861C119.338 18.5258 118.665 17.8437 117.822 17.8437ZM122.485 23.9479V36.9861H125.108V27.6522C126.302 26.3492 127.06 25.9038 128.081 25.9038C128.839 25.9038 129.537 26.2588 129.975 26.9116C130.382 27.5047 130.498 28.0963 130.498 29.7264V36.9861H133.122V29.5788C133.122 28.1269 133.005 27.119 132.713 26.3492C132.102 24.7191 130.615 23.7113 128.839 23.7113C127.526 23.7113 126.593 24.1261 125.108 25.4291V23.9479H122.485ZM136.441 17.2214V36.9861H139.063V30.6438L145.297 36.9861H148.823L142.208 30.2303L147.715 23.9479H144.627L139.063 30.3194V17.2214H136.441ZM160.429 34.5276C159.584 34.9996 159.351 35.0901 159.088 35.0901C158.739 35.0901 158.68 34.9411 158.68 34.0822V29.7556L158.651 27.7705C158.593 26.8518 158.36 25.9929 158.039 25.4889C157.281 24.3628 155.796 23.7113 154.077 23.7113C152.387 23.7113 151.28 24.1553 149.967 25.3999V28.3329C151.483 26.8518 152.562 26.2894 153.872 26.2894C154.66 26.2894 155.359 26.5553 155.708 27.03C155.97 27.3265 156.058 27.7705 156.058 28.571V29.0749L153.786 29.7849C150.929 30.7036 149.647 31.9774 149.647 33.904C149.647 35.8014 150.988 37.2227 152.766 37.2227C153.931 37.2227 155.01 36.7786 156.058 35.8613C156.321 36.7786 156.932 37.2227 157.922 37.2227C158.71 37.2227 159.176 37.0167 160.429 36.1856V34.5276ZM156.058 30.5561V34.1713C155.243 34.8812 154.688 35.1193 153.96 35.1193C152.97 35.1193 152.241 34.4372 152.241 33.4599C152.241 32.4228 153.056 31.5932 154.66 31.0308L156.058 30.5561ZM169.665 17.2214V36.3332C171.181 36.9568 172.522 37.2227 174.095 37.2227C178.435 37.2227 181.173 34.5277 181.173 30.2902C181.173 26.4968 178.845 23.7113 175.639 23.7113C174.473 23.7113 173.745 23.9479 172.288 24.8068V17.2214H169.665ZM172.288 27.5047C173.221 26.6444 174.036 26.2894 175.026 26.2894C177.038 26.2894 178.465 28.0364 178.465 30.4377C178.465 33.0159 176.89 34.6752 174.415 34.6752C173.628 34.6752 173.045 34.5861 172.288 34.2896V27.5047ZM194.567 30.7343C194.567 29.37 194.479 28.6294 194.245 27.8304C193.546 25.223 191.594 23.7113 188.972 23.7113C185.533 23.7113 183.057 26.4968 183.057 30.3779C183.057 34.3188 185.68 37.2227 189.293 37.2227C191.331 37.2227 193.052 36.6297 194.362 35.5341V32.956C192.644 34.1128 191.331 34.5861 189.788 34.5861C187.514 34.5861 186.087 33.2233 185.738 30.7343H194.567ZM185.824 29.0164C186.058 27.2374 187.282 26.0527 188.972 26.0527C190.137 26.0527 191.128 26.6151 191.595 27.5631C191.798 27.978 191.885 28.3329 191.915 29.0164H185.824ZM207.101 23.9479H196.116V26.4077H202.38L195.737 36.9861H207.101V34.5276H200.429L207.101 23.9479ZM211.774 43.5051V36.7202C212.882 37.1044 213.465 37.2227 214.34 37.2227C215.999 37.2227 217.601 36.5712 218.825 35.3866C220.079 34.1713 220.662 32.6303 220.662 30.5853C220.662 28.1547 219.699 26.082 218.068 24.9558C216.902 24.1553 215.942 23.9479 213.376 23.9479H209.153V43.5051H211.774ZM211.774 26.4077H213.989C216.379 26.4077 217.951 28.0364 217.951 30.5268C217.951 33.0159 216.291 34.7935 213.989 34.7935C213.29 34.7935 212.765 34.6752 211.774 34.2896V26.4077ZM234.054 30.7343C234.054 29.37 233.965 28.6294 233.732 27.8304C233.032 25.223 231.081 23.7113 228.458 23.7113C225.021 23.7113 222.543 26.4968 222.543 30.3779C222.543 34.3188 225.166 37.2227 228.779 37.2227C230.819 37.2227 232.538 36.6297 233.848 35.5341V32.956C232.13 34.1128 230.819 34.5861 229.275 34.5861C227.002 34.5861 225.574 33.2233 225.224 30.7343H234.054ZM225.313 29.0164C225.546 27.2374 226.768 26.0527 228.458 26.0527C229.625 26.0527 230.614 26.6151 231.081 27.5631C231.285 27.978 231.373 28.3329 231.402 29.0164H225.313ZM246.008 24.63C244.435 23.9173 243.677 23.7113 242.482 23.7113C238.578 23.7113 236.043 26.3785 236.043 30.4684C236.043 34.4678 238.695 37.2227 242.569 37.2227C243.822 37.2227 244.726 37.0167 246.328 36.3638V33.7564C245.135 34.3495 244.027 34.6446 242.948 34.6446C240.472 34.6446 238.754 32.8975 238.754 30.4085C238.754 27.978 240.298 26.2894 242.511 26.2894C243.561 26.2894 244.435 26.5845 246.008 27.5047V24.63ZM241.404 22.1702H243.211L246.322 18.4854L243.741 18.4952L242.283 20.4371L240.742 18.4952L238.048 18.4854L241.404 22.1702ZM248.849 36.9861H251.472V23.9479H248.849V36.9861ZM251.087 18.4854L248.937 22.1702L250.99 22.1744L254.001 18.4854H251.087Z" fill="#F58025"/>
</svg>
